<svg xmlns="http://www.w3.org/2000/svg" xmlns:xlink="http://www.w3.org/1999/xlink" width="15" height="20" viewBox="0 0 15 20"><defs><path id="a" d="M12.952 6.857h-.889V5.08A4.446 4.446 0 0 0 7.62.635a4.446 4.446 0 0 0-4.444 4.444v1.778h-.89c-.977 0-1.777.8-1.777 1.778v8.889c0 .978.8 1.778 1.778 1.778h10.666c.978 0 1.778-.8 1.778-1.778v-8.89c0-.977-.8-1.777-1.778-1.777zm-5.333 8c-.978 0-1.778-.8-1.778-1.778 0-.977.8-1.777 1.778-1.777s1.778.8 1.778 1.777c0 .978-.8 1.778-1.778 1.778zm2.756-8H4.863V5.08A2.758 2.758 0 0 1 7.62 2.324a2.758 2.758 0 0 1 2.756 2.755v1.778z"/></defs><g fill="none" fill-rule="evenodd"><mask id="b" fill="#fff"><use xlink:href="#a"/></mask><path fill="#333" d="M-3.937-2.032h23.111v23.111H-3.937z" mask="url(#b)" opacity=".5"/></g></svg>